#!OML:ASF E:/inclinewalkrobotboard/Project1/Captureday1/Session1/subject1.ASF
:FULLY-SPECIFIED
:DEGREES
163
root 0 0 0 -1.2622091988417878 21.03449637277605 8.55767248759666
lowerback -4.095569743757703 -6.0589346224246725 -6.3650220105690645
upperback -8.427556329225594 -7.50642554712824 6.969414302135858
thorax -6.091801538617225 -2.618716480512984 10.959531007851501
lowerneck -5.594744394066272 -8.845226602354801 -7.642971227418668
upperneck 32.25212190593355 -11.438452952568515 1.9193983824923069
head 12.148588247909567 -5.817568063289744 0.38229814160585096
rclavicle -3.760207790428485E-15 -2.3998812848600786E-15
rhumerus -18.951797878009323 -27.01187700999389 -16.453785058056177
rradius 62.47354053030867
rwrist -12.272676071518795
rhand -26.638584843975938 32.403766430996235
rfingers 7.1250199999999655
rthumb -0.05416774515170175 1.6270375469400449
lclavicle 5.5424606801878423E-17 -3.8861916704656155E-15
lhumerus 22.92373449851344 3.2064232285046517 41.473963840473985
lradius 63.85509041132879
lwrist -7.246048296423014
lhand -13.395265987925233 7.510752990562249
lfingers 7.1250199999999655
lthumb 12.543421650258484 35.542082322330245
rfemur 142.58156502167273 -158.49710781837217 -123.8107202027629
rtibia 28.646714807686998
rfoot -13.723766956114858 -50.634164454705285
rtoes 4.948372116112097
lfemur -82.523961591376 24.134661553329714 -57.044457437416156
ltibia 68.2708940344856
lfoot 12.274511586872958 32.193781308795124
ltoes 0.44199258609354963
164
root 0 0 0 -1.3220797177329686 21.216775262154105 8.587254681325897
lowerback -4.0799232905832605 -6.061846793418553 -6.37236903910181
upperback -8.419675032117317 -7.508386643032381 6.975037930868126
thorax -6.091853709189947 -2.618251698688306 10.969132111586514
lowerneck -5.58907695235507 -8.85879960525123 -7.654820158104259
upperneck 32.240947670904575 -11.448436384983614 1.900452353464024
head 12.142736763874101 -5.825068912615278 0.3761845583857242
rclavicle -3.777566227030234E-15 -2.435786037112173E-15
rhumerus -18.955904961167178 -26.979633184856635 -16.52245792629852
rradius 62.42865195291176
rwrist -12.242462197782544
rhand -26.631779297621005 32.39113463293695
rfingers 7.1250199999999655
rthumb -0.04721944290134772 1.6147694990149546
lclavicle -1.6918761322790218E-17 -3.896861950702917E-15
lhumerus 23.300665209571896 3.537790538069175 41.17866048697208
lradius 63.7538167143415
lwrist -7.506360975118201
lhand -13.56023336906205 7.478460491496069
lfingers 7.125019999999966
lthumb 12.387848793280405 35.55605442131517
rfemur 141.42971965960265 -157.30958145236164 -122.69325358520548
rtibia 28.599841341157457
rfoot -13.72991417467876 -50.42367279757295
rtoes 4.838243597346999
lfemur -82.34866619331746 24.084740631045747 -57.09489129869267
ltibia 68.25370895388052
lfoot 12.336852875459154 32.140617471821386
ltoes 0.2874237522890706
165
root 0 0 0 -1.3554620345320032 21.319425918334577 8.600341583417284
lowerback -4.069349892450067 -6.063190521860415 -6.37490702839311
upperback -8.414048577192085 -7.509154152445175 6.978120011136921
thorax -6.091400927739875 -2.618100199559283 10.973578547208543
lowerneck -5.587289120391528 -8.866718081573515 -7.661865108738127
upperneck 32.234481716248446 -11.454531807221384 1.8900189378972838
head 12.13972051522375 -5.829478821787238 0.3728413496532996
rclavicle -3.792753399797059E-15 -2.4610416845384737E-15
rhumerus -18.962866842842196 -26.958703781200903 -16.572453678259393
rradius 62.39553239152534
rwrist -12.22131996369012
rhand -26.62669856859098 32.382201680664984
rfingers 7.1250199999999655
rthumb -0.04203916343609748 1.6061018777780696
lclavicle -6.330832282032684E-17 -3.9052171031504956E-15
lhumerus 23.457159789309436 3.7424705721812233 41.08143386574614
lradius 63.69416728403243
lwrist -7.638553060337212
lhand -13.710091797287015 7.455559547270269
lfingers 7.125019999999967
lthumb 12.245922071098672 35.56899016794782
rfemur 140.68672269217706 -156.54405977617833 -121.97107378799527
rtibia 28.5571405911612
rfoot -13.739487911056873 -50.27676782233089
rtoes 4.769146019635411
lfemur -82.23756978336311 24.053818148198477 -57.11439148131581
ltibia 68.25198918565863
lfoot 12.362905616684838 32.09999885840674
ltoes 0.19505402083772871
166
root 0 0 0 0.8012006067742696 13.25576262953884 6.844691764029095
lowerback -3.9265127302190734 -5.7661164750183875 -5.74828111085615
upperback -8.346955662914992 -7.206607360021366 6.597928674897336
thorax -6.110827276513568 -2.572023264985405 10.235956183940438
lowerneck -6.285901746079092 -8.231194373868334 -7.150916632968574
upperneck 32.06640592645913 -10.935530960571878 2.7302061970965124
head 12.225247463287577 -5.461236241829584 0.652467064525219
rclavicle -2.882498171579815E-15 -9.66212245877712E-16
rhumerus -23.61057756913395 -27.885321285375966 -22.48057586581878
rradius 56.72959368537755
rwrist -12.998865564749195
rhand -25.39672281620435 30.752512059622255
rfingers 7.12501999999997
rthumb 1.154622366935243 0.028347367910399157
lclavicle 1.7632719562832008E-15 1.1683882216796795E-15
lhumerus 24.823877500472747 7.054045511179961 38.54320564134712
lradius 62.54793275101923
lwrist -8.834139844262188
lhand -12.985106883610797 7.65159612427777
lfingers 7.125019999999984
lthumb 12.965020914152666 35.87927640461757
rfemur 143.3975247735367 -159.3863801286903 -124.79628964459386
rtibia 28.930460640610825
rfoot -13.893219164452761 -50.206241520183724
rtoes 6.003018548074671
lfemur -85.09527923550361 25.115627595805933 -54.9070781792691
ltibia 68.40040444661892
lfoot 10.317832378700398 32.494345608286146
ltoes 2.7968917293713655
